<?xml version="1.0" encoding="utf-8"?>
<!-- Generator: Adobe Illustrator 16.0.0, SVG Export Plug-In . SVG Version: 6.00 Build 0)  -->
<!DOCTYPE svg PUBLIC "-//W3C//DTD SVG 1.1//EN" "http://www.w3.org/Graphics/SVG/1.1/DTD/svg11.dtd">
<svg version="1.1" id="Layer_1" xmlns="http://www.w3.org/2000/svg" xmlns:xlink="http://www.w3.org/1999/xlink" x="0px" y="0px"
	 width="100px" viewBox="0 0 183.959 83.612" enable-background="new 0 0 183.959 83.612"
	 xml:space="preserve">
<path id="rect5149" inkscape:export-filename="C:\Users\ivellios\Dropbox\Public\ro_logo_v3_final_all.png" inkscape:export-xdpi="28" inkscape:export-ydpi="28" inkscape:connector-curvature="0" sodipodi:nodetypes="ccsscscscccc" fill="#1B2013" d="
	M23.735,29.211v13.238c-13.066-0.486-25.567,0.484-23.188,3.544c18.667,24.004-9.69,43.483,74.015,35.992
	c36.087-3.23,74.144-14.05,107.697,0.72c2.815-18.47,3.96-28.678-11.634-39.348c-30.086-20.587-11.512-24.079-2.479-15.063
	c0,0,0.418-14.971-49.84-2.506c-47.125,11.688-74.835,5.198-74.835,5.198s3.786,12.958-6.75,12.196v-13.97H23.735z"/>
<g enable-background="new    ">
	<path fill="#FFFFFF" d="M60.802,37.497c0.602,0,1.366-0.18,2.292-0.539c0.393-0.185,0.755-0.355,1.084-0.511
		c0.331-0.157,0.657-0.29,0.98-0.399c0.324-0.11,0.663-0.194,1.016-0.251c0.353-0.058,0.749-0.087,1.189-0.087
		c1.261,0,2.196,0.214,2.804,0.643s0.911,1.042,0.911,1.839c0,0.533-0.213,1.016-0.642,1.45c-0.428,0.435-0.99,0.889-1.684,1.362
		l-1.493,1.024c0.243,0.486,0.538,0.996,0.885,1.527c0.348,0.533,0.711,1.016,1.094,1.45c0.382,0.435,0.761,0.793,1.137,1.076
		c0.375,0.284,0.708,0.426,0.998,0.426c0.381,0,0.81-0.191,1.285-0.573l0.364,0.417c-0.358,0.29-0.789,0.677-1.292,1.163
		c-0.504,0.486-1.085,1.065-1.745,1.736c-0.834-1.227-1.629-2.326-2.387-3.297c-0.758-0.973-1.484-1.858-2.178-2.656l-0.903,0.625
		v1.424c0,0.498,0.119,0.938,0.357,1.319c0.237,0.381,0.621,0.706,1.154,0.972v1.059c-0.405-0.115-0.822-0.214-1.25-0.295
		c-0.428-0.081-0.828-0.122-1.198-0.122c-0.556,0-1.04,0.084-1.45,0.252c-0.411,0.167-0.727,0.332-0.946,0.494l-0.486-0.711
		c0.417-0.254,0.721-0.532,0.912-0.833c0.191-0.301,0.286-0.625,0.286-0.972v-6.892c0-0.938-0.365-1.424-1.093-1.458V37.497z
		 M67.051,40.968c0.648-0.451,1.093-0.894,1.336-1.328c0.243-0.434,0.364-0.876,0.364-1.327c0-0.625-0.165-1.08-0.494-1.363
		c-0.331-0.283-0.715-0.425-1.155-0.425c-0.231,0-0.486,0.035-0.764,0.104c-0.278,0.069-0.544,0.199-0.798,0.391
		c-0.254,0.19-0.477,0.457-0.667,0.798c-0.191,0.341-0.316,0.778-0.375,1.311v3.61L67.051,40.968z"/>
	<path fill="#FFFFFF" d="M78.23,42.913c-0.081-0.521-0.364-0.886-0.851-1.094c-0.764,0.486-1.719,0.834-2.865,1.042l-0.434-0.625
		c1.458-0.579,2.552-1.372,3.28-2.378c0.521,0.428,1.04,0.816,1.554,1.163c0.514,0.347,1.05,0.653,1.605,0.92v4.495
		c0,0.752,0.353,1.128,1.059,1.128v0.417l-1.579,0.972l-1.753-1.302l-2.396,1.51c-1.332-0.278-1.997-1.064-1.997-2.36
		c0-0.845,0.382-1.545,1.146-2.101l3.229-1.232V42.913z M77.189,44.666c-0.741,0.498-1.112,1.064-1.112,1.701
		c0,0.603,0.359,0.949,1.076,1.042l1.077-0.451v-2.76L77.189,44.666z"/>
	<path fill="#FFFFFF" d="M85.642,40.951c0.382-0.092,0.747-0.228,1.093-0.408c0.348-0.18,0.684-0.396,1.007-0.651
		c0.902,0.348,1.64,0.874,2.213,1.58s0.86,1.58,0.86,2.621c0,0.695-0.076,1.279-0.226,1.754s-0.374,0.894-0.668,1.258
		s-0.657,0.701-1.084,1.007c-0.429,0.307-0.92,0.634-1.476,0.98c-0.313-0.116-0.636-0.309-0.972-0.582
		c-0.336-0.272-0.585-0.639-0.747-1.103v4.652h-2.274v-9.009c0-0.682-0.284-1.047-0.85-1.093v-0.312l3.124-1.65V40.951z
		 M88.541,47.147c0.185-0.555,0.277-1.157,0.277-1.805c0-0.521-0.066-0.98-0.2-1.38c-0.133-0.4-0.301-0.747-0.504-1.042
		c-0.202-0.295-0.422-0.552-0.66-0.773c-0.237-0.22-0.465-0.417-0.685-0.59c-0.359,0.115-0.735,0.185-1.129,0.208v2.969
		c0,0.289,0.053,0.578,0.156,0.868c0.104,0.29,0.257,0.553,0.46,0.79c0.202,0.237,0.449,0.431,0.737,0.581
		c0.29,0.151,0.625,0.226,1.007,0.226C88.165,47.2,88.344,47.183,88.541,47.147z"/>
	<path fill="#FFFFFF" d="M96.213,39.823c0.66,0.393,1.218,0.793,1.675,1.198c0.458,0.405,0.825,0.819,1.102,1.241
		c0.279,0.423,0.481,0.862,0.609,1.319c0.126,0.457,0.19,0.939,0.19,1.449c0,0.475-0.107,0.931-0.321,1.372
		c-0.215,0.44-0.501,0.839-0.859,1.198c-0.359,0.358-0.778,0.663-1.258,0.911c-0.481,0.249-0.987,0.419-1.519,0.512
		c-0.522-0.185-1.01-0.419-1.468-0.703c-0.458-0.283-0.856-0.607-1.197-0.972c-0.342-0.365-0.611-0.761-0.808-1.189
		c-0.197-0.429-0.295-0.879-0.295-1.354c0-0.556,0.083-1.05,0.251-1.484c0.167-0.435,0.425-0.839,0.772-1.215
		c0.348-0.376,0.781-0.747,1.303-1.111C94.911,40.63,95.519,40.239,96.213,39.823z M93.8,42.323c-0.151,0.3-0.226,0.67-0.226,1.111
		c0,0.532,0.13,1.03,0.391,1.493c0.261,0.463,0.588,0.868,0.981,1.215c0.393,0.348,0.824,0.622,1.292,0.825
		c0.468,0.202,0.912,0.303,1.328,0.303c0.221,0,0.393-0.037,0.521-0.112c0.127-0.076,0.22-0.174,0.278-0.296
		c0.058-0.122,0.095-0.254,0.113-0.399c0.017-0.144,0.026-0.286,0.026-0.425c0-0.475-0.11-0.943-0.33-1.407
		c-0.22-0.462-0.51-0.873-0.868-1.232c-0.358-0.358-0.77-0.648-1.232-0.867c-0.463-0.22-0.938-0.331-1.424-0.331
		c-0.139,0-0.281,0.009-0.425,0.027C94.081,42.244,93.939,42.276,93.8,42.323z"/>
	<path fill="#FFFFFF" d="M101.733,42.981c0-0.682-0.283-1.047-0.85-1.093v-0.312l1.909-1.65c0.694,0.198,1.099,0.584,1.215,1.164
		c0.323-0.579,0.879-0.966,1.667-1.164c0.277,0.637,0.786,1.024,1.526,1.164l-1.666,1.371l-0.087-0.035
		c-0.104-0.324-0.283-0.485-0.538-0.485c-0.243,0-0.544,0.162-0.903,0.485v6.371h-2.274V42.981z"/>
	<path fill="#FFFFFF" d="M108.85,47.634v-5.016c0-0.683-0.284-1.048-0.851-1.094v-0.312l3.125-3.056v2.066h1.736v1.371h-1.736v4.843
		c0,0.752,0.358,1.128,1.076,1.128v0.417l-1.58,0.972L108.85,47.634z"/>
</g>
<g enable-background="new    ">
	<path fill="#FFFFFF" d="M24.032,48.28c1.552,0.82,2.849,1.676,3.892,2.567c1.043,0.892,1.882,1.819,2.515,2.782
		c0.632,0.962,1.087,1.965,1.363,3.009c0.277,1.043,0.415,2.118,0.415,3.223c0,1.105-0.246,2.167-0.736,3.182
		c-0.49,1.017-1.154,1.931-1.992,2.742c-0.838,0.812-1.805,1.498-2.901,2.06c-1.097,0.562-2.243,0.949-3.438,1.163
		c-1.123-0.41-2.203-0.932-3.236-1.565c-1.034-0.633-1.948-1.364-2.741-2.193c-0.794-0.829-1.432-1.742-1.913-2.741
		c-0.481-0.998-0.722-2.059-0.722-3.183c0-1.23,0.196-2.336,0.588-3.316c0.392-0.98,0.98-1.899,1.766-2.755
		c0.784-0.855,1.773-1.681,2.968-2.474C21.054,49.987,22.445,49.154,24.032,48.28z M18.175,53.496
		c-0.713,1.141-1.07,2.255-1.07,3.343c0,0.874,0.147,1.703,0.441,2.487c0.294,0.785,0.69,1.516,1.19,2.193
		c0.499,0.678,1.074,1.288,1.726,1.832c0.65,0.544,1.327,1.013,2.033,1.405c0.704,0.393,1.413,0.691,2.126,0.896
		c0.712,0.205,1.39,0.308,2.032,0.308c0.873,0,1.649-0.214,2.327-0.642c0.268-0.535,0.481-1.138,0.642-1.806
		c0.161-0.668,0.241-1.431,0.241-2.287c0-1.033-0.2-2.076-0.602-3.129c-0.401-1.052-0.958-2.006-1.671-2.862
		c-0.713-0.855-1.564-1.555-2.554-2.1c-0.99-0.543-2.072-0.816-3.25-0.816C20.697,52.318,19.494,52.711,18.175,53.496z"/>
	<path fill="#FFFFFF" d="M39.09,57.721c0.391-0.161,0.735-0.325,1.029-0.495c0.294-0.169,0.562-0.352,0.803-0.548
		s0.472-0.414,0.696-0.655c0.223-0.241,0.477-0.521,0.762-0.842c0.855,0,1.591,0.138,2.206,0.414
		c0.616,0.277,1.128,0.655,1.538,1.137c0.41,0.482,0.713,1.048,0.909,1.699c0.196,0.651,0.295,1.35,0.295,2.099
		c0,0.945-0.152,1.899-0.455,2.861c-0.304,0.963-0.736,1.855-1.297,2.675c-0.562,0.82-1.244,1.52-2.046,2.1
		c-0.802,0.579-1.694,0.949-2.675,1.11c-0.339-0.482-0.682-0.914-1.03-1.297c-0.348-0.383-0.727-0.727-1.137-1.029
		c-0.41-0.304-0.869-0.558-1.377-0.763c-0.508-0.205-1.083-0.361-1.725-0.468V53.282c0-1.052-0.437-1.614-1.311-1.685v-0.481
		l4.815-2.541V57.721z M44.653,65.451c0.303-0.75,0.455-1.436,0.455-2.06c0-0.624-0.121-1.221-0.361-1.792
		c-0.241-0.57-0.571-1.07-0.989-1.499c-0.419-0.427-0.91-0.771-1.472-1.029c-0.562-0.258-1.163-0.388-1.806-0.388
		c-0.499,0-0.999,0.081-1.497,0.241c0,0.232-0.018,0.535-0.054,0.91c-0.036,0.375-0.053,0.767-0.053,1.177
		c0,0.517,0.053,1.039,0.16,1.564c0.107,0.526,0.335,1.008,0.682,1.445c0.348,0.437,0.833,0.793,1.458,1.07
		c0.625,0.276,1.462,0.414,2.514,0.414c0.161,0,0.317-0.004,0.468-0.013C44.31,65.482,44.474,65.469,44.653,65.451z"/>
	<path fill="#FFFFFF" d="M53.131,68.955l-2.727-2.033v-7.275c0-1.052-0.438-1.613-1.311-1.685V57.48l2.567-2.541l2.248,2.3v7.836
		c0,1.16,0.552,1.739,1.657,1.739v0.642L53.131,68.955z M53.908,51.757l-3.879,2.006v-2.755l3.879-1.952V51.757z"/>
	<path fill="#FFFFFF" d="M60.807,64.328c0.535,0.588,1.087,1.012,1.658,1.271c0.57,0.258,1.177,0.387,1.818,0.387
		c0.838,0,1.64-0.196,2.407-0.588l0.348,0.16c-1.212,2.05-2.719,3.218-4.52,3.504c-0.643-0.286-1.262-0.646-1.859-1.083
		c-0.598-0.437-1.123-0.936-1.577-1.498c-0.455-0.562-0.816-1.177-1.083-1.846s-0.401-1.377-0.401-2.126
		c0-0.856,0.121-1.614,0.361-2.273c0.241-0.66,0.589-1.274,1.043-1.846c0.455-0.57,1.021-1.137,1.698-1.698s1.445-1.163,2.301-1.805
		c1.444,0.909,2.657,2.112,3.637,3.61L60.807,64.328z M60.46,58.042c-0.482,1.212-0.723,2.3-0.723,3.263
		c0,0.678,0.151,1.391,0.454,2.14l3.103-3.076C62.92,58.943,61.975,58.168,60.46,58.042z"/>
	<path fill="#FFFFFF" d="M80.625,56.037l-6.954,9.468h2.996c1.641,0,2.978-0.49,4.012-1.471l0.428,0.535l-1.738,4.172H69.232v-1.15
		l7.515-9.441h-3.155c-1.088,0-2.345,0.392-3.771,1.176l-0.348-0.348l0.829-3.878h10.324V56.037z M74.929,53.977l-1.712-1.818
		l1.926-2.032l1.685,1.711L74.929,53.977z"/>
	<path fill="#FFFFFF" d="M88.408,68.473c-2.442-2.55-3.664-5.037-3.664-7.462c0-1.337-0.169-2.385-0.508-3.143
		c-0.338-0.758-0.882-1.306-1.631-1.646v-1.016h3.745c0.57,0.499,0.994,1.163,1.271,1.992c0.275,0.829,0.431,1.913,0.467,3.25
		c0.053,2.621,0.99,4.583,2.808,5.884c1.462-1.354,2.193-2.942,2.193-4.761c0-0.481-0.076-0.967-0.228-1.458
		s-0.366-0.932-0.642-1.324c-0.277-0.393-0.606-0.713-0.99-0.963c-0.383-0.25-0.815-0.374-1.297-0.374
		c-0.268,0-0.687,0.071-1.257,0.214l-0.214-0.588c1.052-0.57,1.8-1.301,2.247-2.193c0.088,0,0.164-0.005,0.228-0.014
		c0.062-0.009,0.138-0.013,0.227-0.013c0.588,0,1.141,0.098,1.658,0.293c0.517,0.197,0.967,0.481,1.351,0.856
		c0.384,0.374,0.691,0.843,0.923,1.404c0.232,0.562,0.348,1.208,0.348,1.939c0,1.818-0.437,3.45-1.311,4.895
		c-0.874,1.444-2.05,2.746-3.53,3.905c-0.678,0.535-1.243,1.038-1.698,1.511c-0.454,0.472-0.825,0.927-1.11,1.364
		c-0.286,0.437-0.486,0.878-0.602,1.324c-0.116,0.445-0.174,0.909-0.174,1.391h-3.236c0.374-1.284,0.931-2.377,1.672-3.276
		C86.192,69.565,87.178,68.901,88.408,68.473z"/>
	<path fill="#FFFFFF" d="M101.3,57.695c-0.339,0.606-0.508,1.159-0.508,1.658c0,0.374,0.094,0.713,0.281,1.017
		c0.187,0.303,0.442,0.562,0.763,0.775c0.32,0.214,0.704,0.379,1.15,0.495c0.446,0.116,0.936,0.174,1.471,0.174
		c0.82,0,1.596-0.058,2.328-0.174c0.731-0.116,1.435-0.308,2.112-0.575c0.303,0.606,0.548,1.235,0.736,1.886
		c0.188,0.651,0.281,1.315,0.281,1.993c0,0.463-0.197,0.914-0.588,1.351c-0.393,0.437-0.906,0.838-1.538,1.203
		c-0.633,0.366-1.346,0.683-2.14,0.95c-0.793,0.268-1.591,0.454-2.393,0.562c-0.464-0.125-0.954-0.277-1.472-0.455
		c-0.517-0.178-1.03-0.378-1.538-0.602c-0.508-0.223-0.98-0.468-1.417-0.736c-0.438-0.267-0.808-0.552-1.111-0.856
		c1.195-0.356,2.274-0.9,3.237-1.631c0.356,0.535,0.722,0.977,1.096,1.324c0.374,0.347,0.766,0.615,1.177,0.802
		c0.41,0.188,0.852,0.317,1.325,0.388c0.472,0.071,0.984,0.107,1.538,0.107c0.249,0,0.481-0.031,0.696-0.093
		c0.213-0.063,0.32-0.219,0.32-0.468c0-0.98-0.352-1.796-1.056-2.448c-0.705-0.651-1.778-0.977-3.223-0.977
		c-0.802,0-1.489,0.027-2.059,0.081c-0.571,0.053-1.062,0.16-1.472,0.321c-0.962-1.248-1.444-2.381-1.444-3.396
		c0-0.553,0.174-1.057,0.521-1.512c0.347-0.455,0.824-0.882,1.431-1.284c0.606-0.4,1.324-0.783,2.153-1.15
		c0.829-0.365,1.734-0.735,2.715-1.11c0.962,0.392,1.846,0.812,2.647,1.257c0.802,0.446,1.515,0.927,2.14,1.444
		c-0.945,0.25-1.952,0.82-3.022,1.711c-0.106-0.303-0.299-0.583-0.575-0.842c-0.276-0.258-0.606-0.482-0.989-0.668
		c-0.384-0.188-0.803-0.335-1.257-0.441c-0.455-0.107-0.905-0.16-1.351-0.16C101.941,57.615,101.621,57.642,101.3,57.695z
		 M107.611,52.078l-4.841,2.086l-0.722-0.668l4.119-3.049L107.611,52.078z"/>
	<path fill="#FFFFFF" d="M125.344,69.169c-1.391-1.374-2.39-2.595-2.995-3.665c-0.464,0.571-1.03,1.159-1.698,1.765
		c-0.669,0.607-1.432,1.24-2.287,1.9h-0.241c-2.854-2.799-4.28-5.519-4.28-8.158c0-1.337-0.169-2.385-0.508-3.143
		c-0.339-0.758-0.882-1.306-1.631-1.646v-1.016h3.744c0.536,0.499,0.95,1.163,1.244,1.992c0.294,0.829,0.459,1.913,0.495,3.25
		c0.053,2.621,0.99,4.583,2.808,5.884c1.462-1.354,2.193-2.942,2.193-4.761c0-0.481-0.076-0.967-0.227-1.458
		c-0.152-0.49-0.367-0.932-0.643-1.324c-0.277-0.393-0.606-0.713-0.99-0.963c-0.384-0.25-0.816-0.374-1.297-0.374
		c-0.268,0-0.687,0.071-1.257,0.214l-0.214-0.588c1.017-0.606,1.756-1.337,2.22-2.193h0.401c0.499,0,1.012,0.106,1.539,0.321
		c0.525,0.214,1.002,0.517,1.43,0.909c0.428,0.393,0.781,0.865,1.057,1.417c0.276,0.553,0.415,1.168,0.415,1.846
		c0,0.695-0.089,1.311-0.268,1.845c0.517,2.407,1.472,4.111,2.861,5.109c1.462-1.354,2.193-2.942,2.193-4.761
		c0-0.481-0.071-0.967-0.213-1.458c-0.144-0.49-0.352-0.932-0.629-1.324c-0.277-0.393-0.606-0.713-0.99-0.963
		c-0.383-0.25-0.815-0.374-1.296-0.374c-0.286,0-0.714,0.071-1.284,0.214l-0.187-0.588c0.498-0.285,0.94-0.611,1.323-0.977
		c0.383-0.365,0.691-0.771,0.923-1.216c0.07,0,0.138-0.005,0.2-0.014c0.063-0.009,0.138-0.013,0.228-0.013
		c0.589,0,1.141,0.098,1.659,0.293c0.516,0.197,0.971,0.481,1.363,0.856c0.392,0.374,0.7,0.843,0.923,1.404
		c0.223,0.562,0.334,1.208,0.334,1.939c0,0.962-0.104,1.845-0.308,2.648c-0.205,0.802-0.548,1.587-1.029,2.354
		c-0.481,0.767-1.115,1.533-1.899,2.3c-0.785,0.767-1.765,1.605-2.942,2.515H125.344z"/>
	<path fill="#FFFFFF" d="M137.86,68.955l-2.728-2.033v-7.275c0-1.052-0.438-1.613-1.311-1.685V57.48l2.568-2.541l2.247,2.3v7.836
		c0,1.16,0.552,1.739,1.658,1.739v0.642L137.86,68.955z M138.637,51.757l-3.878,2.006v-2.755l3.878-1.952V51.757z"/>
	<path fill="#FFFFFF" d="M149.308,59.647c-0.125-0.802-0.562-1.364-1.311-1.685c-1.177,0.749-2.647,1.284-4.413,1.604l-0.668-0.962
		c2.247-0.891,3.932-2.112,5.055-3.664c0.802,0.66,1.6,1.257,2.393,1.792c0.794,0.535,1.619,1.008,2.474,1.418v6.926
		c0,1.16,0.543,1.739,1.632,1.739v0.642l-2.434,1.499l-2.701-2.006l-3.691,2.327c-2.05-0.428-3.076-1.64-3.076-3.638
		c0-1.301,0.589-2.38,1.766-3.236l4.975-1.899V59.647z M147.703,62.349c-1.141,0.767-1.711,1.64-1.711,2.621
		c0,0.927,0.552,1.462,1.658,1.605l1.658-0.695v-4.253L147.703,62.349z"/>
	<path fill="#FFFFFF" d="M157.01,66.922v-7.729c0-1.052-0.437-1.614-1.31-1.685v-0.481l4.814-4.708v3.183h2.674v2.113h-2.674v7.461
		c0,1.16,0.552,1.739,1.658,1.739v0.642l-2.434,1.499L157.01,66.922z"/>
	<path fill="#FFFFFF" d="M172.229,59.647c-0.125-0.802-0.562-1.364-1.31-1.685c-1.177,0.749-2.648,1.284-4.414,1.604l-0.668-0.962
		c2.247-0.891,3.931-2.112,5.055-3.664c0.802,0.66,1.6,1.257,2.394,1.792c0.793,0.535,1.618,1.008,2.474,1.418v6.926
		c0,1.16,0.543,1.739,1.631,1.739v0.642l-2.434,1.499l-2.701-2.006l-3.691,2.327c-2.05-0.428-3.075-1.64-3.075-3.638
		c0-1.301,0.588-2.38,1.765-3.236l4.975-1.899V59.647z M170.624,62.349c-1.141,0.767-1.711,1.64-1.711,2.621
		c0,0.927,0.552,1.462,1.658,1.605l1.658-0.695v-4.253L170.624,62.349z"/>
</g>
<g>

		<path id="path5087_1_" inkscape:export-filename="C:\Users\ivellios\Dropbox\Public\ro_logo_v3_final_all.png" inkscape:export-xdpi="28.008421" inkscape:export-ydpi="28.008421" inkscape:connector-curvature="0" sodipodi:nodetypes="cccc" fill="#1B2013" d="
		M30.769,29.73H15.384C5.56,33.151,1.07,37.976,0,45.115C18.459,50.764,30.755,48.315,30.769,29.73z"/>

		<path id="path5089_1_" inkscape:export-filename="C:\Users\ivellios\Dropbox\Public\ro_logo_v3_final_all.png" inkscape:export-xdpi="28.008421" inkscape:export-ydpi="28.008421" inkscape:connector-curvature="0" sodipodi:nodetypes="cccc" fill="#1B2013" d="
		M29.491,29.762h15.331c9.236,2.734,14.515,8.473,15.332,15.331C41.758,50.722,29.505,48.282,29.491,29.762z"/>

		<path id="path5087_2_" inkscape:export-filename="C:\Users\ivellios\Dropbox\Public\ro_logo_v3_final_all.png" inkscape:export-xdpi="28.008421" inkscape:export-ydpi="28.008421" inkscape:connector-curvature="0" sodipodi:nodetypes="cccc" fill="#677934" d="
		M29.606,30.413H15.384C6.302,33.575,2.152,38.035,1.163,44.634C18.227,49.857,29.593,47.593,29.606,30.413z"/>

		<path id="path5089_2_" inkscape:export-filename="C:\Users\ivellios\Dropbox\Public\ro_logo_v3_final_all.png" inkscape:export-xdpi="28.008421" inkscape:export-ydpi="28.008421" inkscape:connector-curvature="0" sodipodi:nodetypes="cccc" fill="#677934" d="
		M30.617,30.422h14.205c8.557,2.535,13.449,7.851,14.207,14.206C41.983,49.844,30.629,47.583,30.617,30.422z"/>

		<path id="path5091_1_" inkscape:export-filename="C:\Users\ivellios\Dropbox\Public\ro_logo_v3_final_all.png" inkscape:export-xdpi="28.008421" inkscape:export-ydpi="28.008421" inkscape:connector-curvature="0" sodipodi:nodetypes="ccccc" fill="#1B2013" d="
		M30.109,0C16.69,1.825,15.029,22.71,14.778,30.663c3.731,3.621,11.653,5.145,15.332,0c3.633,5.145,11.555,3.621,15.331,0
		C45.441,22.997,43.501,1.825,30.109,0L30.109,0z"/>

		<path id="path5091_2_" inkscape:export-filename="C:\Users\ivellios\Dropbox\Public\ro_logo_v3_final_all.png" inkscape:export-xdpi="28.008421" inkscape:export-ydpi="28.008421" inkscape:connector-curvature="0" sodipodi:nodetypes="ccccc" fill="#677934" d="
		M30.109,0.984C17.467,2.704,15.904,22.378,15.667,29.87c3.515,3.412,10.978,4.846,14.443,0c3.422,4.846,10.885,3.412,14.442,0
		C44.552,22.649,42.725,2.704,30.109,0.984L30.109,0.984z"/>

		<path id="path5093_2_" inkscape:export-filename="C:\Users\ivellios\Dropbox\Public\ro_logo_v3_final_all.png" inkscape:export-xdpi="28.008421" inkscape:export-ydpi="28.008421" inkscape:connector-curvature="0" sodipodi:nodetypes="cccc" fill="#1B2013" d="
		M2.337,43.905c1.693,0.597,4.538,1.28,6.248,1.523c-0.482-3.826,1.964-9.062,6.895-13.689C8.203,33.204,2.79,39.057,2.337,43.905z"
		/>

		<path id="path5095_2_" inkscape:export-filename="C:\Users\ivellios\Dropbox\Public\ro_logo_v3_final_all.png" inkscape:export-xdpi="28.008421" inkscape:export-ydpi="28.008421" inkscape:connector-curvature="0" sodipodi:nodetypes="cccc" fill="#8DA33B" d="
		M22.649,34.652c2.088,0.119,4.657,0.111,6.242-1.355c-0.052,1.146-0.462,3.1-0.809,4.267C27.945,35.779,24.48,35.281,22.649,34.652
		z"/>

		<path id="path5097_2_" inkscape:export-filename="C:\Users\ivellios\Dropbox\Public\ro_logo_v3_final_all.png" inkscape:export-xdpi="28.008421" inkscape:export-ydpi="28.008421" inkscape:connector-curvature="0" sodipodi:nodetypes="cccc" inkscape:transform-center-y="197.54956" inkscape:transform-center-x="60.539008" fill="#1B2013" d="
		M9.121,45.535c1.337,0.303,4.055,0.564,5.34,0.522c-1.755-4.097-2.028-7.515,1.191-13.952C9.68,38.325,8.829,43.194,9.121,45.535
		L9.121,45.535z"/>

		<path id="path5099_2_" inkscape:export-filename="C:\Users\ivellios\Dropbox\Public\ro_logo_v3_final_all.png" inkscape:export-xdpi="28.008421" inkscape:export-ydpi="28.008421" inkscape:connector-curvature="0" sodipodi:nodetypes="cccc" fill="#8DA33B" d="
		M45.013,31.259c-0.812,0.993-2.341,2.048-4.097,2.341c5.207,0.613,13.27,2.887,17.682,10.651
		C57.305,38.237,51.708,33.312,45.013,31.259z"/>

		<path id="path5101_2_" inkscape:export-filename="C:\Users\ivellios\Dropbox\Public\ro_logo_v3_final_all.png" inkscape:export-xdpi="28.008421" inkscape:export-ydpi="28.008421" inkscape:connector-curvature="0" sodipodi:nodetypes="ccc" inkscape:transform-center-y="2.005837" inkscape:transform-center-x="-36.397351" fill="#1B2013" d="
		M44.658,45.992c-7.484-1.354-11.637-8.046-13.036-12.64C31.763,39.5,35.668,46.095,44.658,45.992z"/>

		<path id="path5103_2_" inkscape:export-filename="C:\Users\ivellios\Dropbox\Public\ro_logo_v3_final_all.png" inkscape:export-xdpi="28.008421" inkscape:export-ydpi="28.008421" inkscape:connector-curvature="0" sodipodi:nodetypes="cccccc" fill="#1B2013" d="
		M30.096,11.228c-3.512-3.542-8.217-3.579-11.032,16.394c-1.06,6.431,7.52,6.469,11.032,4.214C33.608,34.09,42,34.053,41.193,27.613
		C38.267,7.649,33.608,7.687,30.096,11.228L30.096,11.228z"/>

		<path id="path5105_2_" inkscape:export-filename="C:\Users\ivellios\Dropbox\Public\ro_logo_v3_final_all.png" inkscape:export-xdpi="28.008421" inkscape:export-ydpi="28.008421" inkscape:connector-curvature="0" sodipodi:nodetypes="ccccc" fill="#1B2013" d="
		M30.121,7.939c1.17-0.878,4.674-0.868,4.674-0.868s-3.504-1.181-4.674-0.01c-1.17-1.17-4.695,0.01-4.695,0.01
		S28.951,7.061,30.121,7.939L30.121,7.939z"/>

		<path id="path5107_2_" inkscape:export-filename="C:\Users\ivellios\Dropbox\Public\ro_logo_v3_final_all.png" inkscape:export-xdpi="28.008421" inkscape:export-ydpi="28.008421" inkscape:connector-curvature="0" sodipodi:nodetypes="ccccc" fill="#1B2013" d="
		M30.117,5.629c0.608-0.458,2.433-0.452,2.433-0.452s-1.825-1.073-2.433-0.464c-0.61-0.609-2.446,0.464-2.446,0.464
		S29.506,5.171,30.117,5.629L30.117,5.629z"/>
</g>
<g>
</g>
<g>
</g>
<g>
</g>
<g>
</g>
<g>
</g>
<g>
</g>
</svg>
